<svg width="20" height="20" viewBox="0 0 20 20" fill="none" xmlns="http://www.w3.org/2000/svg">
<path fill-rule="evenodd" clip-rule="evenodd" d="M15.4224 0.0446434C13.8802 0.336927 12.6972 1.44656 12.2973 2.97588C12.2251 3.25198 12.2136 3.43086 12.1987 4.5032C12.1807 5.80517 12.2112 6.15652 12.3878 6.68225C12.6499 7.46204 13.2158 8.22017 13.8643 8.66045C14.2262 8.9061 14.7799 9.15687 15.1809 9.25682C15.6486 9.37339 16.4764 9.38207 16.9374 9.27527C17.882 9.05644 18.7823 8.45198 19.3006 7.68865C19.5375 7.33976 19.793 6.78186 19.8931 6.39462C19.9698 6.09827 19.9803 5.93843 19.9955 4.84947C20.0135 3.54751 19.983 3.19616 19.8063 2.67042C19.379 1.39879 18.3194 0.421989 17.0156 0.0977289C16.5955 -0.00672215 15.8284 -0.0322877 15.4224 0.0446434ZM1.76028 1.31537C1.60338 1.3565 1.36594 1.44727 1.23261 1.51712C0.914879 1.68361 0.440878 2.15755 0.274605 2.47497C0.0095211 2.981 -0.0707232 3.61404 0.0649065 4.12906C0.101726 4.26881 1.33631 7.19333 2.80842 10.6279L5.48497 16.8727H6.39381C6.89369 16.8727 7.30265 16.8816 7.30265 16.8925C7.30265 16.9033 6.95966 17.5981 6.54046 18.4364C6.12126 19.2747 5.77828 19.9694 5.77828 19.9803C5.77828 19.9911 8.10001 20 10.9377 20C13.7753 20 16.0971 19.9911 16.0971 19.9803C16.0971 19.9694 15.7541 19.2747 15.3349 18.4364C14.9157 17.5981 14.5727 16.9033 14.5727 16.8925C14.5727 16.8816 14.693 16.8727 14.8401 16.8727C15.1767 16.8727 15.6396 16.7558 15.953 16.5916C16.2701 16.4254 16.7443 15.9512 16.9104 15.6341C17.1821 15.1154 17.2553 14.5157 17.1143 13.9642C17.0013 13.5226 16.8278 13.2227 16.4893 12.8841C16.1507 12.5455 15.8508 12.372 15.4093 12.259C15.1205 12.1852 14.9659 12.1818 11.8395 12.1818H8.57155L8.24979 11.4291C8.0728 11.0151 7.92803 10.6633 7.92803 10.6472C7.92803 10.6313 8.95698 10.6182 10.2146 10.6182H12.5011V9.83635V9.05453H9.8671H7.23307L5.82073 5.7592C5.04396 3.94678 4.3494 2.37626 4.27728 2.26919C3.73523 1.46419 2.69573 1.07027 1.76028 1.31537ZM16.5857 1.60785C17.0293 1.70101 17.401 1.90752 17.74 2.24914C18.0021 2.51328 18.2859 2.93964 18.2859 3.06931C18.2859 3.10058 17.6749 3.1127 16.0971 3.1127C14.5193 3.1127 13.9082 3.10058 13.9082 3.06931C13.9082 2.93964 14.192 2.51328 14.4541 2.24914C15.0301 1.6688 15.7888 1.44054 16.5857 1.60785ZM2.74908 2.91724C2.82354 2.96329 2.9177 3.04808 2.95835 3.1057C2.99896 3.16328 4.04757 5.58047 5.28856 8.47719L7.54498 13.7439L11.3227 13.7545L15.1004 13.765L15.2496 13.8578C15.3316 13.9088 15.446 14.0219 15.5036 14.109C15.5907 14.2405 15.6085 14.3111 15.6085 14.5244C15.6085 14.8323 15.5094 15.0226 15.2645 15.1847L15.1061 15.2895H10.8052H6.50435L4.04902 9.56271C2.69859 6.41295 1.58361 3.76532 1.5713 3.67913C1.52248 3.33751 1.7627 2.93691 2.07332 2.84184C2.26289 2.78379 2.59278 2.82061 2.74908 2.91724ZM18.4423 5.19781C18.4423 6.08803 18.2623 6.57503 17.7387 7.10166C17.4019 7.4405 17.1045 7.6127 16.6601 7.72641C16.2769 7.82441 15.9173 7.82441 15.5341 7.72641C15.0926 7.61344 14.7927 7.43991 14.4541 7.10131C13.9326 6.57968 13.7519 6.08991 13.7519 5.19781V4.67634H16.0971H18.4423V5.19781Z" fill="#F06C24"/>
</svg>
