<svg width="155" height="155" viewBox="0 0 155 155" fill="none" xmlns="http://www.w3.org/2000/svg">
<circle cx="2.5" cy="2.5" r="2.5" fill="#0469CD"/>
<circle cx="2.5" cy="32.5" r="2.5" fill="#0469CD"/>
<circle cx="2.5" cy="62.5" r="2.5" fill="#0469CD"/>
<circle cx="2.5" cy="92.5" r="2.5" fill="#0469CD"/>
<circle cx="2.5" cy="122.5" r="2.5" fill="#0469CD"/>
<circle cx="2.5" cy="152.5" r="2.5" fill="#0469CD"/>
<circle cx="32.5" cy="2.5" r="2.5" fill="#0469CD"/>
<circle cx="32.5" cy="32.5" r="2.5" fill="#0469CD"/>
<circle cx="32.5" cy="62.5" r="2.5" fill="#0469CD"/>
<circle cx="32.5" cy="92.5" r="2.5" fill="#0469CD"/>
<circle cx="32.5" cy="122.5" r="2.5" fill="#0469CD"/>
<circle cx="32.5" cy="152.5" r="2.5" fill="#0469CD"/>
<circle cx="62.5" cy="2.5" r="2.5" fill="#0469CD"/>
<circle cx="62.5" cy="32.5" r="2.5" fill="#0469CD"/>
<circle cx="62.5" cy="62.5" r="2.5" fill="#0469CD"/>
<circle cx="62.5" cy="92.5" r="2.5" fill="#0469CD"/>
<circle cx="62.5" cy="122.5" r="2.5" fill="#0469CD"/>
<circle cx="62.5" cy="152.5" r="2.5" fill="#0469CD"/>
<circle cx="92.5" cy="2.5" r="2.5" fill="#0469CD"/>
<circle cx="92.5" cy="32.5" r="2.5" fill="#0469CD"/>
<circle cx="92.5" cy="62.5" r="2.5" fill="#0469CD"/>
<circle cx="92.5" cy="92.5" r="2.5" fill="#0469CD"/>
<circle cx="92.5" cy="122.5" r="2.5" fill="#0469CD"/>
<circle cx="92.5" cy="152.5" r="2.5" fill="#0469CD"/>
<circle cx="122.5" cy="2.5" r="2.5" fill="#0469CD"/>
<circle cx="122.5" cy="32.5" r="2.5" fill="#0469CD"/>
<circle cx="122.5" cy="62.5" r="2.5" fill="#0469CD"/>
<circle cx="122.5" cy="92.5" r="2.5" fill="#0469CD"/>
<circle cx="122.5" cy="122.5" r="2.5" fill="#0469CD"/>
<circle cx="122.5" cy="152.5" r="2.5" fill="#0469CD"/>
<circle cx="152.5" cy="2.5" r="2.5" fill="#0469CD"/>
<circle cx="152.5" cy="32.5" r="2.5" fill="#0469CD"/>
<circle cx="152.5" cy="62.5" r="2.5" fill="#0469CD"/>
<circle cx="152.5" cy="92.5" r="2.5" fill="#0469CD"/>
<circle cx="152.5" cy="122.5" r="2.5" fill="#0469CD"/>
<circle cx="152.5" cy="152.5" r="2.5" fill="#0469CD"/>
</svg>
