<svg width="48" height="48" viewBox="0 0 48 48" fill="none" xmlns="http://www.w3.org/2000/svg">
<path d="M16 24C14.8954 24 14 24.8954 14 26C14 27.1046 14.8954 28 16 28H32C33.1046 28 34 27.1046 34 26C34 24.8954 33.1046 24 32 24H16Z" fill="white"/>
<path d="M14 34C14 32.8954 14.8954 32 16 32H24C25.1046 32 26 32.8954 26 34C26 35.1046 25.1046 36 24 36H16C14.8954 36 14 35.1046 14 34Z" fill="white"/>
<path fill-rule="evenodd" clip-rule="evenodd" d="M14 4C15.1046 4 16 4.89544 16 6V8H32V6C32 4.89544 32.8954 4 34 4C35.1046 4 36 4.89544 36 6V8.20004C40.5644 9.12658 44 13.1621 44 18V34C44 39.5228 39.5228 44 34 44H14C8.47716 44 4 39.5228 4 34V18C4 13.1621 7.43552 9.12658 12 8.20004V6C12 4.89544 12.8954 4 14 4ZM40 20H8V34C8 37.3138 10.6863 40 14 40H34C37.3138 40 40 37.3138 40 34V20Z" fill="white"/>
</svg>
