<svg width="23" height="22" viewBox="0 0 23 22" fill="none" xmlns="http://www.w3.org/2000/svg">
<path d="M6.76892 10.1002H8.56892V11.9002H6.76892V10.1002ZM6.76892 13.7002H8.56892V15.5002H6.76892V13.7002ZM10.3689 10.1002H12.1689V11.9002H10.3689V10.1002ZM10.3689 13.7002H12.1689V15.5002H10.3689V13.7002ZM13.9689 10.1002H15.7689V11.9002H13.9689V10.1002ZM13.9689 13.7002H15.7689V15.5002H13.9689V13.7002Z" fill="#F06C24"/>
<path d="M4.96852 20H17.5685C18.5612 20 19.3685 19.1927 19.3685 18.2V5.6C19.3685 4.6073 18.5612 3.8 17.5685 3.8H15.7685V2H13.9685V3.8H8.56852V2H6.76852V3.8H4.96852C3.97582 3.8 3.16852 4.6073 3.16852 5.6V18.2C3.16852 19.1927 3.97582 20 4.96852 20ZM17.5685 7.4L17.5694 18.2H4.96852V7.4H17.5685Z" fill="#F06C24"/>
</svg>
