<svg width="48" height="48" viewBox="0 0 48 48" fill="none" xmlns="http://www.w3.org/2000/svg">
<path d="M43.18 19.66C42.8395 19.1394 42.5578 18.5827 42.34 18C42.1648 17.3929 42.0509 16.7698 42 16.14C41.9757 14.6102 41.533 13.1162 40.72 11.82C39.735 10.6362 38.44 9.74986 36.98 9.26001C36.3905 9.03497 35.8272 8.74662 35.3 8.40001C34.8229 8.00538 34.3873 7.56309 34 7.08001C33.0691 5.83614 31.8179 4.86838 30.38 4.28001C28.9334 3.93735 27.4217 3.98567 26 4.42001C24.724 4.71987 23.396 4.71987 22.12 4.42001C20.6546 3.96002 19.091 3.91159 17.6 4.28001C16.1694 4.87149 14.9254 5.839 14 7.08001C13.6064 7.5641 13.1641 8.00643 12.68 8.40001C12.1528 8.74662 11.5895 9.03497 11 9.26001C9.53273 9.74655 8.23048 10.6332 7.24 11.82C6.44101 13.1202 6.01226 14.614 6 16.14C5.94907 16.7698 5.83516 17.3929 5.66 18C5.43951 18.5688 5.15786 19.112 4.82 19.62C3.91482 20.9112 3.38207 22.4264 3.28 24C3.38925 25.5598 3.92168 27.0602 4.82 28.34C5.15786 28.848 5.43951 29.3912 5.66 29.96C5.82429 30.5815 5.92481 31.2181 5.96 31.86C5.98429 33.3899 6.42695 34.8839 7.24 36.18C8.22503 37.3638 9.51998 38.2502 10.98 38.74C11.5695 38.9651 12.1328 39.2534 12.66 39.6C13.1441 39.9936 13.5864 40.4359 13.98 40.92C14.9109 42.1639 16.1621 43.1316 17.6 43.72C18.1635 43.8943 18.7502 43.982 19.34 43.98C20.259 43.9513 21.1716 43.8171 22.06 43.58C23.3359 43.2802 24.664 43.2802 25.94 43.58C27.3867 44.0289 28.928 44.0773 30.4 43.72C31.8306 43.1285 33.0746 42.161 34 40.92C34.3936 40.4359 34.8359 39.9936 35.32 39.6C35.8472 39.2534 36.4105 38.9651 37 38.74C38.46 38.2502 39.755 37.3638 40.74 36.18C41.546 34.8818 41.9817 33.388 42 31.86C42.0352 31.2181 42.1357 30.5815 42.3 29.96C42.5205 29.3912 42.8021 28.848 43.14 28.34C44.0525 27.0645 44.5989 25.5637 44.72 24C44.6107 22.4403 44.0783 20.9398 43.18 19.66ZM19 16C19.5933 16 20.1734 16.176 20.6667 16.5056C21.1601 16.8352 21.5446 17.3038 21.7716 17.852C21.9987 18.4001 22.0581 19.0033 21.9424 19.5853C21.8266 20.1672 21.5409 20.7018 21.1213 21.1213C20.7018 21.5409 20.1672 21.8266 19.5853 21.9424C19.0033 22.0581 18.4001 21.9987 17.8519 21.7717C17.3038 21.5446 16.8352 21.1601 16.5056 20.6667C16.1759 20.1734 16 19.5934 16 19C16 18.2044 16.3161 17.4413 16.8787 16.8787C17.4413 16.3161 18.2043 16 19 16ZM29 32C28.4067 32 27.8266 31.8241 27.3333 31.4944C26.8399 31.1648 26.4554 30.6962 26.2284 30.1481C26.0013 29.5999 25.9419 28.9967 26.0576 28.4147C26.1734 27.8328 26.4591 27.2983 26.8787 26.8787C27.2982 26.4591 27.8328 26.1734 28.4147 26.0577C28.9967 25.9419 29.5999 26.0013 30.148 26.2284C30.6962 26.4554 31.1648 26.84 31.4944 27.3333C31.824 27.8267 32 28.4067 32 29C32 29.7957 31.6839 30.5587 31.1213 31.1213C30.5587 31.6839 29.7956 32 29 32ZM31.42 19.42L19.42 31.42C19.2341 31.6075 19.0129 31.7563 18.7692 31.8578C18.5254 31.9593 18.264 32.0116 18 32.0116C17.736 32.0116 17.4746 31.9593 17.2308 31.8578C16.9871 31.7563 16.7659 31.6075 16.58 31.42C16.3925 31.2341 16.2438 31.0129 16.1422 30.7692C16.0407 30.5254 15.9884 30.264 15.9884 30C15.9884 29.736 16.0407 29.4746 16.1422 29.2309C16.2438 28.9871 16.3925 28.7659 16.58 28.58L28.58 16.58C28.9566 16.2034 29.4674 15.9918 30 15.9918C30.5326 15.9918 31.0434 16.2034 31.42 16.58C31.7966 16.9566 32.0082 17.4674 32.0082 18C32.0082 18.5326 31.7966 19.0434 31.42 19.42Z" fill="white"/>
</svg>
