<svg width="155" height="155" viewBox="0 0 155 155" fill="none" xmlns="http://www.w3.org/2000/svg">
<circle cx="2.5" cy="2.5" r="2.5" transform="matrix(-1 0 0 1 155 0)" fill="#F06C24"/>
<circle cx="2.5" cy="2.5" r="2.5" transform="matrix(-1 0 0 1 125 0)" fill="#F06C24"/>
<circle cx="2.5" cy="2.5" r="2.5" transform="matrix(-1 0 0 1 125 30)" fill="#F06C24"/>
<circle cx="2.5" cy="2.5" r="2.5" transform="matrix(-1 0 0 1 95 0)" fill="#F06C24"/>
<circle cx="2.5" cy="2.5" r="2.5" transform="matrix(-1 0 0 1 95 30)" fill="#F06C24"/>
<circle cx="2.5" cy="2.5" r="2.5" transform="matrix(-1 0 0 1 95 60)" fill="#F06C24"/>
<circle cx="2.5" cy="2.5" r="2.5" transform="matrix(-1 0 0 1 65 0)" fill="#F06C24"/>
<circle cx="2.5" cy="2.5" r="2.5" transform="matrix(-1 0 0 1 65 30)" fill="#F06C24"/>
<circle cx="2.5" cy="2.5" r="2.5" transform="matrix(-1 0 0 1 65 60)" fill="#F06C24"/>
<circle cx="2.5" cy="2.5" r="2.5" transform="matrix(-1 0 0 1 65 90)" fill="#F06C24"/>
<circle cx="2.5" cy="2.5" r="2.5" transform="matrix(-1 0 0 1 35 0)" fill="#F06C24"/>
<circle cx="2.5" cy="2.5" r="2.5" transform="matrix(-1 0 0 1 35 30)" fill="#F06C24"/>
<circle cx="2.5" cy="2.5" r="2.5" transform="matrix(-1 0 0 1 35 60)" fill="#F06C24"/>
<circle cx="2.5" cy="2.5" r="2.5" transform="matrix(-1 0 0 1 35 90)" fill="#F06C24"/>
<circle cx="2.5" cy="2.5" r="2.5" transform="matrix(-1 0 0 1 35 120)" fill="#F06C24"/>
<circle cx="2.5" cy="2.5" r="2.5" transform="matrix(-1 0 0 1 5 0)" fill="#F06C24"/>
<circle cx="2.5" cy="2.5" r="2.5" transform="matrix(-1 0 0 1 5 30)" fill="#F06C24"/>
<circle cx="2.5" cy="2.5" r="2.5" transform="matrix(-1 0 0 1 5 60)" fill="#F06C24"/>
<circle cx="2.5" cy="2.5" r="2.5" transform="matrix(-1 0 0 1 5 90)" fill="#F06C24"/>
<circle cx="2.5" cy="2.5" r="2.5" transform="matrix(-1 0 0 1 5 120)" fill="#F06C24"/>
<circle cx="2.5" cy="2.5" r="2.5" transform="matrix(-1 0 0 1 5 150)" fill="#F06C24"/>
</svg>
