<svg width="24" height="25" viewBox="0 0 24 25" fill="none" xmlns="http://www.w3.org/2000/svg">
<path d="M19.1604 5.85088L15.09 2.29946C14.7094 1.96748 14.6814 1.40231 15.0273 1.03707C15.3731 0.671837 15.962 0.644912 16.3425 0.976893L22.1951 6.08321C22.6016 6.43776 22.6016 7.05126 22.1951 7.40581L16.3425 12.5121C15.962 12.8441 15.3732 12.8172 15.0273 12.4519C14.6814 12.0867 14.7094 11.5217 15.09 11.1896L19.1604 7.63814H2.43127C1.91707 7.63814 1.5 7.23806 1.5 6.74453C1.5 6.251 1.91705 5.85072 2.43127 5.85072L19.1604 5.85088Z" fill="#024B90"/>
<path d="M5.18053 17.8509L9.05719 14.2995C9.41961 13.9675 9.44633 13.4023 9.1169 13.0371C8.78748 12.6718 8.22667 12.6449 7.86424 12.9769L2.29038 18.0832C1.90321 18.4378 1.90321 19.0513 2.29038 19.4058L7.86424 24.5121C8.22667 24.8441 8.78747 24.8172 9.1169 24.4519C9.44633 24.0867 9.41961 23.5217 9.05719 23.1896L5.18053 19.6381H21.1131C21.6028 19.6381 22 19.2381 22 18.7445C22 18.251 21.6028 17.8507 21.1131 17.8507L5.18053 17.8509Z" fill="#024B90"/>
</svg>
