<svg width="13" height="17" viewBox="0 0 13 17" fill="none" xmlns="http://www.w3.org/2000/svg">
<path d="M6.28572 0.744507C4.61925 0.746473 3.0216 1.40935 1.84322 2.58772C0.664847 3.7661 0.00197267 5.36375 6.68736e-06 7.03022C-0.00198925 8.39206 0.442853 9.71695 1.26629 10.8017C1.26629 10.8017 1.43772 11.0274 1.46572 11.0599L6.28572 16.7445L11.108 11.0571C11.1331 11.0268 11.3052 10.8017 11.3052 10.8017L11.3057 10.7999C12.1288 9.71571 12.5734 8.39144 12.5714 7.03022C12.5695 5.36375 11.9066 3.7661 10.7282 2.58772C9.54985 1.40935 7.95219 0.746473 6.28572 0.744507ZM6.28572 9.31594C5.83365 9.31594 5.39173 9.18188 5.01585 8.93072C4.63996 8.67957 4.347 8.32259 4.174 7.90493C4.001 7.48727 3.95573 7.02769 4.04393 6.5843C4.13212 6.14092 4.34981 5.73364 4.66948 5.41398C4.98914 5.09431 5.39642 4.87662 5.8398 4.78843C6.28319 4.70023 6.74277 4.7455 7.16043 4.9185C7.57809 5.0915 7.93507 5.38446 8.18622 5.76035C8.43738 6.13623 8.57144 6.57815 8.57144 7.03022C8.57068 7.6362 8.32962 8.21714 7.90113 8.64563C7.47264 9.07412 6.8917 9.31518 6.28572 9.31594Z" fill="#F06C24"/>
</svg>
