<svg width="33" height="42" viewBox="0 0 33 42" fill="none" xmlns="http://www.w3.org/2000/svg">
<path d="M16.5 0C12.1255 0.00516071 7.93168 1.74521 4.83845 4.83844C1.74522 7.93167 0.00517826 12.1255 1.75543e-05 16.5C-0.00522178 20.0748 1.16249 23.5527 3.32401 26.4C3.32401 26.4 3.77401 26.9925 3.84751 27.078L16.5 42L29.1585 27.0705C29.2245 26.991 29.676 26.4 29.676 26.4L29.6775 26.3955C31.8379 23.5494 33.0051 20.0732 33 16.5C32.9948 12.1255 31.2548 7.93167 28.1615 4.83844C25.0683 1.74521 20.8745 0.00516071 16.5 0ZM16.5 22.5C15.3133 22.5 14.1533 22.1481 13.1666 21.4888C12.1799 20.8295 11.4109 19.8925 10.9567 18.7961C10.5026 17.6997 10.3838 16.4933 10.6153 15.3295C10.8468 14.1656 11.4182 13.0965 12.2574 12.2574C13.0965 11.4182 14.1656 10.8468 15.3295 10.6153C16.4933 10.3838 17.6997 10.5026 18.7961 10.9567C19.8925 11.4108 20.8295 12.1799 21.4888 13.1666C22.1481 14.1533 22.5 15.3133 22.5 16.5C22.498 18.0907 21.8652 19.6157 20.7404 20.7404C19.6157 21.8652 18.0907 22.498 16.5 22.5Z" fill="white"/>
</svg>
