<svg width="155" height="156" viewBox="0 0 155 156" fill="none" xmlns="http://www.w3.org/2000/svg">
<circle cx="2.5" cy="3.24463" r="2.5" fill="#F06C24"/>
<circle cx="2.5" cy="33.2446" r="2.5" fill="#F06C24"/>
<circle cx="2.5" cy="63.2446" r="2.5" fill="#F06C24"/>
<circle cx="2.5" cy="93.2446" r="2.5" fill="#F06C24"/>
<circle cx="2.5" cy="123.245" r="2.5" fill="#F06C24"/>
<circle cx="2.5" cy="153.245" r="2.5" fill="#F06C24"/>
<circle cx="32.5" cy="3.24463" r="2.5" fill="#F06C24"/>
<circle cx="32.5" cy="33.2446" r="2.5" fill="#F06C24"/>
<circle cx="32.5" cy="63.2446" r="2.5" fill="#F06C24"/>
<circle cx="32.5" cy="93.2446" r="2.5" fill="#F06C24"/>
<circle cx="32.5" cy="123.245" r="2.5" fill="#F06C24"/>
<circle cx="32.5" cy="153.245" r="2.5" fill="#F06C24"/>
<circle cx="62.5" cy="3.24463" r="2.5" fill="#F06C24"/>
<circle cx="62.5" cy="33.2446" r="2.5" fill="#F06C24"/>
<circle cx="62.5" cy="63.2446" r="2.5" fill="#F06C24"/>
<circle cx="62.5" cy="93.2446" r="2.5" fill="#F06C24"/>
<circle cx="62.5" cy="123.245" r="2.5" fill="#F06C24"/>
<circle cx="62.5" cy="153.245" r="2.5" fill="#F06C24"/>
<circle cx="92.5" cy="3.24463" r="2.5" fill="#F06C24"/>
<circle cx="92.5" cy="33.2446" r="2.5" fill="#F06C24"/>
<circle cx="92.5" cy="63.2446" r="2.5" fill="#F06C24"/>
<circle cx="92.5" cy="93.2446" r="2.5" fill="#F06C24"/>
<circle cx="92.5" cy="123.245" r="2.5" fill="#F06C24"/>
<circle cx="92.5" cy="153.245" r="2.5" fill="#F06C24"/>
<circle cx="122.5" cy="3.24463" r="2.5" fill="#F06C24"/>
<circle cx="122.5" cy="33.2446" r="2.5" fill="#F06C24"/>
<circle cx="122.5" cy="63.2446" r="2.5" fill="#F06C24"/>
<circle cx="122.5" cy="93.2446" r="2.5" fill="#F06C24"/>
<circle cx="122.5" cy="123.245" r="2.5" fill="#F06C24"/>
<circle cx="122.5" cy="153.245" r="2.5" fill="#F06C24"/>
<circle cx="152.5" cy="3.24463" r="2.5" fill="#F06C24"/>
<circle cx="152.5" cy="33.2446" r="2.5" fill="#F06C24"/>
<circle cx="152.5" cy="63.2446" r="2.5" fill="#F06C24"/>
<circle cx="152.5" cy="93.2446" r="2.5" fill="#F06C24"/>
<circle cx="152.5" cy="123.245" r="2.5" fill="#F06C24"/>
<circle cx="152.5" cy="153.245" r="2.5" fill="#F06C24"/>
</svg>
