<svg width="97" height="66" viewBox="0 0 97 66" fill="none" xmlns="http://www.w3.org/2000/svg">
<path d="M23.99 65.8972C18.2819 66.4111 13.3521 64.9981 9.20077 61.6582C5.30888 58.0615 2.71429 53.4371 1.41699 47.7851C0.37915 42.9039 0.119691 37.8941 0.63861 32.7559C1.41699 27.3608 3.10347 22.4796 5.69807 18.1121C8.55212 13.4877 12.444 9.50564 17.3737 6.16582C22.3035 2.826 28.5305 0.770728 36.0548 0L38.7791 9.6341C34.8873 10.6617 30.7359 12.4601 26.3251 15.0292C21.9143 17.5983 19.0602 21.9657 17.7629 28.1316L23.6008 26.9755C29.5683 26.7186 34.6278 28.3885 38.7791 31.9852C43.19 35.5819 45.3954 40.0779 45.3954 45.4729C45.3954 50.868 43.3197 55.6209 39.1683 59.7314C35.017 63.585 29.9575 65.6403 23.99 65.8972ZM75.3629 65.8972C69.3954 66.4111 64.4656 64.9981 60.5737 61.6582C56.6819 58.0615 54.0873 53.4371 52.79 47.7851C51.4927 42.9039 51.2332 37.8941 52.0116 32.7559C52.79 27.3608 54.4764 22.4796 57.071 18.1121C59.9251 13.4877 63.817 9.50564 68.7467 6.16582C73.6764 2.826 79.7737 0.770728 87.0386 0L90.1521 9.6341C86.2602 10.6617 81.9792 12.4601 77.3089 15.0292C72.8981 17.5983 70.044 21.9657 68.7467 28.1316C69.7846 27.8747 70.6927 27.7462 71.471 27.7462C72.5089 27.4893 73.6765 27.2324 74.9737 26.9755C80.9413 26.7186 86.0008 28.3885 90.1521 31.9852C94.3035 35.5819 96.3792 40.0779 96.3792 45.4729C96.3792 50.868 94.3035 55.6209 90.1521 59.7314C86.2602 63.585 81.3305 65.6403 75.3629 65.8972Z" fill="#D4E7FA"/>
</svg>
