<svg width="203" height="237" viewBox="0 0 203 237" fill="none" xmlns="http://www.w3.org/2000/svg">
<path d="M136.698 215.456C-5.66169 202.58 -4.26601 118.187 109.346 49.3962" stroke="url(#paint0_linear_49_300)" stroke-width="2" stroke-dasharray="3 5"/>
<g filter="url(#filter0_d_49_300)">
<path fill-rule="evenodd" clip-rule="evenodd" d="M160.743 26.5898C159.887 28.0636 158.448 29.5789 156.828 30.7105C156.228 31.1293 152.494 32.9014 139.778 38.8003C128.897 43.8482 123.283 46.4041 122.852 46.5054C122.179 46.664 120.769 46.7765 120.5 46.6933C120.394 46.6606 120.595 46.5179 121.12 46.2521C121.97 45.8217 122.312 45.4961 122.482 44.9528C122.843 43.8027 122.272 42.7414 121.098 42.3784C120.406 42.1647 119.79 42.2834 118.949 42.7925C118.591 43.0096 118.286 43.1662 118.272 43.1404C118.209 43.0251 119.256 41.7388 119.824 41.2344C120.454 40.6747 120.656 40.559 133.426 33.443C134.827 32.6623 139.553 30.0287 143.927 27.5908C149.161 24.6733 152.144 23.0649 152.655 22.885C154.272 22.3151 156.049 22.0304 157.769 22.0658C158.981 22.0906 160.452 22.5153 160.923 22.9759C161.272 23.3171 161.488 23.8079 161.503 24.2947C161.517 24.7261 161.108 25.9622 160.743 26.5898ZM157.039 26.8215C157.02 25.8764 156.05 24.5877 155.147 24.3088C154.839 24.2135 154.23 24.4648 154.15 24.7199C154.065 24.9941 154.267 25.5284 154.509 25.6678C155.211 26.0724 155.548 26.807 155.337 27.4778C155.281 27.6553 155.289 27.8982 155.356 28.0633C155.555 28.5568 156.396 28.6641 156.763 28.2431C156.933 28.0481 157.051 27.4395 157.039 26.8215ZM147.537 54.7307C147.236 54.9997 145.082 56.1038 145.124 55.9675C145.147 55.8938 145.271 55.2852 145.4 54.6152L145.633 53.3971L145.958 53.2239C146.138 53.1287 146.409 53.03 146.563 53.0045C146.889 52.9503 147.425 53.0979 147.629 53.2984C147.949 53.6122 147.898 54.4087 147.537 54.7307ZM148.903 45.2056C148.767 45.3181 148.268 45.5991 147.795 45.8302L146.934 46.2505L147.192 44.9408L147.449 43.6313L147.813 43.4392C148.644 43.0012 149.531 43.7972 149.241 44.7193C149.192 44.8744 149.04 45.0932 148.903 45.2056ZM141.916 62.5814C141.375 63.4141 140.18 64.3052 139.774 64.1797C139.521 64.1014 139.307 63.6425 139.254 63.0595C138.865 58.8565 137.249 50.8873 135.595 45.0164C135.045 43.0625 135.024 42.7269 135.442 42.5223C137.404 41.5616 145.41 37.905 145.618 37.8754C145.863 37.8402 145.936 37.8668 146.171 38.0765C146.324 38.2121 146.452 38.4314 146.464 38.5761C146.5 38.992 145.914 42.7545 145.398 45.4347C145.135 46.7972 144.373 50.914 143.704 54.5831C143.035 58.2523 142.421 61.4583 142.339 61.7076C142.257 61.9569 142.067 62.3501 141.916 62.5814ZM140.564 27.536C140.414 27.7122 131.076 32.9031 130.714 33.0115C130.343 33.1225 130.138 33.0221 129.661 32.4954C126.052 28.5139 123.482 25.9161 119.795 22.5247C117.818 20.7053 115.82 18.9565 114.53 17.915C114.172 17.6267 114.036 17.2219 114.205 16.9522C114.366 16.6945 115.462 16.3378 116.204 16.301C117.301 16.2467 117.758 16.4164 124.497 19.3792C127.899 20.8747 132.057 22.691 133.738 23.4156C135.42 24.14 137.633 25.1318 138.658 25.6196C140.417 26.4571 140.528 26.5228 140.657 26.804C140.798 27.1143 140.777 27.2864 140.564 27.536ZM136.995 22.3553C136.908 22.4572 136.736 22.5945 136.614 22.6605C136.396 22.778 136.365 22.7696 135.133 22.257C134.441 21.9691 133.884 21.7071 133.894 21.6748C133.904 21.6425 134.347 21.4097 134.878 21.1576C135.938 20.655 136.282 20.6232 136.797 20.9808C137.25 21.2958 137.345 21.9491 136.995 22.3553ZM122.064 56.1433C121.305 56.5225 121.038 56.4781 120.76 55.9268C120.438 55.2876 118.533 49.148 118.563 48.8487C118.609 48.4021 119.091 48.1926 119.931 48.2554C120.298 48.2829 121.06 48.2758 121.624 48.2395C122.744 48.1674 122.942 48.2348 123.096 48.7389C123.171 48.9854 122.846 55.3177 122.741 55.6524C122.708 55.7574 122.423 55.9637 122.064 56.1433ZM117.976 46.1505C116.374 46.9298 114.961 47.5794 114.836 47.5941C114.558 47.6266 114.315 47.304 114.404 47.0208C114.471 46.8064 120.468 43.7773 120.689 43.8458C120.896 43.9099 121.038 44.2603 120.958 44.5135C120.903 44.6886 120.292 45.0241 117.976 46.1505ZM127.88 18.0777C127.796 18.2019 127.542 18.3986 127.316 18.515L126.905 18.7264L125.605 18.1902C124.89 17.8953 124.313 17.6289 124.323 17.5982C124.333 17.5677 124.847 17.2952 125.466 16.9929C126.28 16.5955 126.694 16.4475 126.962 16.4586C127.853 16.4956 128.355 17.3802 127.88 18.0777ZM117.812 40.9411C117.597 41.1841 117.211 41.7186 116.953 42.1289C116.64 42.6286 116.409 42.9053 116.252 42.9666C115.728 43.1712 115.6 43.0516 112.871 39.8168C111.447 38.1287 110.266 36.6696 110.246 36.5746C110.141 36.0696 110.698 35.5135 111.426 35.3957C111.712 35.3494 111.864 35.4362 114.874 37.3653C117.659 39.1502 118.042 39.421 118.19 39.7089C118.397 40.114 118.32 40.3671 117.812 40.9411Z" fill="url(#paint1_linear_49_300)"/>
</g>
<defs>
<filter id="filter0_d_49_300" x="106.234" y="16.2936" width="59.27" height="59.8979" filterUnits="userSpaceOnUse" color-interpolation-filters="sRGB">
<feFlood flood-opacity="0" result="BackgroundImageFix"/>
<feColorMatrix in="SourceAlpha" type="matrix" values="0 0 0 0 0 0 0 0 0 0 0 0 0 0 0 0 0 0 127 0" result="hardAlpha"/>
<feOffset dy="8"/>
<feGaussianBlur stdDeviation="2"/>
<feComposite in2="hardAlpha" operator="out"/>
<feColorMatrix type="matrix" values="0 0 0 0 0.445833 0 0 0 0 0.167633 0 0 0 0 0.0111458 0 0 0 0.17 0"/>
<feBlend mode="normal" in2="BackgroundImageFix" result="effect1_dropShadow_49_300"/>
<feBlend mode="normal" in="SourceGraphic" in2="effect1_dropShadow_49_300" result="shape"/>
</filter>
<linearGradient id="paint0_linear_49_300" x1="559.637" y1="375.264" x2="797.454" y2="224.795" gradientUnits="userSpaceOnUse">
<stop stop-color="#F06C24"/>
<stop offset="1" stop-color="white"/>
</linearGradient>
<linearGradient id="paint1_linear_49_300" x1="148.513" y1="42.9013" x2="115.511" y2="32.5432" gradientUnits="userSpaceOnUse">
<stop stop-color="#FFBE72"/>
<stop offset="1" stop-color="#F06C24"/>
</linearGradient>
</defs>
</svg>
