<svg width="261" height="145" viewBox="0 0 261 145" fill="none" xmlns="http://www.w3.org/2000/svg">
<path d="M190.735 61.4102C105.851 -2.70818 43.4401 50.6428 13.4889 105.845" stroke="url(#paint0_linear_49_297)" stroke-width="2" stroke-dasharray="3 5"/>
<g filter="url(#filter0_d_49_297)">
<path fill-rule="evenodd" clip-rule="evenodd" d="M246.495 110.033C245.869 107.659 244.483 105.031 242.726 102.887C242.075 102.093 237.735 98.3356 222.913 85.7336C210.229 74.9495 203.667 69.4542 203.131 69.1669C202.293 68.7176 200.463 68.088 200.077 68.1161C199.926 68.1272 200.142 68.3965 200.747 68.9483C201.726 69.842 202.066 70.4174 202.105 71.2445C202.187 72.9951 201.064 74.3091 199.382 74.432C198.391 74.5043 197.616 74.1307 196.676 73.1286C196.276 72.7013 195.926 72.3778 195.898 72.4095C195.774 72.5517 196.719 74.7243 197.298 75.6288C197.941 76.6324 198.169 76.8638 212.644 91.2094C214.232 92.7833 219.588 98.0921 224.546 103.006C230.48 108.888 233.88 112.163 234.494 112.588C236.441 113.935 238.699 114.931 240.991 115.454C242.607 115.823 244.704 115.712 245.487 115.216C246.067 114.849 246.523 114.225 246.711 113.54C246.878 112.933 246.762 111.045 246.495 110.033ZM241.664 108.47C241.314 109.803 239.583 111.306 238.29 111.401C237.848 111.433 237.127 110.874 237.11 110.485C237.091 110.068 237.543 109.378 237.912 109.261C238.983 108.922 239.682 107.993 239.634 106.972C239.622 106.702 239.716 106.36 239.861 106.148C240.296 105.515 241.447 105.643 241.789 106.363C241.947 106.696 241.894 107.598 241.664 108.47ZM238.694 65.7395C238.387 65.2577 235.912 62.9741 235.922 63.1817C235.927 63.2938 235.881 64.1978 235.82 65.1903L235.709 66.9948L236.081 67.3488C236.286 67.5437 236.612 67.7742 236.806 67.8613C237.221 68.0471 237.981 68.0165 238.322 67.8004C238.855 67.4624 239.062 66.3163 238.694 65.7395ZM237.22 79.697C237.077 79.492 236.513 78.9272 235.965 78.4418L234.97 77.5592L234.859 79.5015L234.749 81.4436L235.165 81.8374C236.115 82.7352 237.566 81.9029 237.499 80.4988C237.488 80.2628 237.362 79.9019 237.22 79.697ZM233.95 52.7366C233.519 51.3756 232.243 49.7141 231.661 49.7566C231.298 49.783 230.857 50.3625 230.585 51.1709C228.619 56.9989 223.729 67.7565 219.511 75.5272C218.108 78.1133 217.965 78.5821 218.448 79.0115C220.717 81.0274 230.071 88.8808 230.335 88.9919C230.648 89.1236 230.755 89.1104 231.139 88.8915C231.387 88.75 231.633 88.4821 231.699 88.281C231.89 87.7033 232.412 82.1748 232.651 78.2032C232.773 76.1842 233.182 70.0945 233.561 64.6704C233.94 59.2462 234.231 54.4968 234.209 54.1161C234.186 53.7355 234.07 53.1147 233.95 52.7366ZM220.069 101.963C219.931 101.663 209.341 91.1907 208.899 90.9163C208.446 90.6354 208.14 90.7095 207.325 91.2969C201.167 95.7372 196.864 98.5623 190.807 102.14C187.558 104.06 184.306 105.873 182.236 106.919C181.663 107.208 181.343 107.736 181.474 108.175C181.599 108.594 182.928 109.465 183.899 109.765C185.335 110.208 186 110.12 195.956 108.167C200.981 107.182 207.121 105.994 209.599 105.527C212.078 105.061 215.355 104.394 216.881 104.044C219.503 103.443 219.673 103.387 219.94 103.031C220.235 102.639 220.265 102.388 220.069 101.963ZM213.551 108.116C213.47 107.943 213.29 107.691 213.15 107.556C212.902 107.317 212.858 107.319 211.049 107.635C210.032 107.812 209.202 107.998 209.205 108.047C209.207 108.096 209.714 108.574 210.332 109.108C211.562 110.174 212.008 110.334 212.814 109.999C213.524 109.703 213.874 108.809 213.551 108.116ZM205.41 55.2422C204.535 54.4516 204.165 54.4254 203.607 55.1144C202.96 55.9132 198.316 63.9806 198.253 64.415C198.159 65.0632 198.727 65.5212 199.861 65.7121C200.358 65.7956 201.366 66.0599 202.101 66.2994C203.561 66.7749 203.847 66.7456 204.225 66.0823C204.409 65.7579 206.162 56.6734 206.138 56.1638C206.131 56.004 205.825 55.6167 205.41 55.2422ZM196.545 68.0441C194.69 66.4052 193.04 65.013 192.879 64.9504C192.522 64.8117 192.089 65.188 192.109 65.6191C192.124 65.9454 199.029 72.2389 199.346 72.2157C199.643 72.194 199.951 71.7444 199.933 71.359C199.921 71.0925 199.226 70.4131 196.545 68.0441ZM199.992 111.14C199.923 110.936 199.654 110.572 199.394 110.332L198.922 109.895L197.014 110.222C195.965 110.402 195.108 110.587 195.11 110.634C195.113 110.68 195.701 111.238 196.417 111.873C197.359 112.708 197.857 113.056 198.216 113.129C199.41 113.374 200.381 112.287 199.992 111.14ZM194.53 75.3735C194.328 74.9574 194.001 74.071 193.801 73.4035C193.559 72.5909 193.347 72.1213 193.16 71.982C192.536 71.5174 192.325 71.6442 187.592 75.3197C185.122 77.2377 183.053 78.9121 182.994 79.0403C182.68 79.721 183.226 80.6948 184.151 81.1046C184.514 81.2655 184.745 81.1932 189.402 79.4626C193.71 77.8613 194.311 77.6052 194.606 77.2463C195.021 76.7413 195.005 76.3566 194.53 75.3735Z" fill="url(#paint1_linear_49_297)"/>
</g>
<defs>
<filter id="filter0_d_49_297" x="177.444" y="49.7557" width="73.3443" height="77.917" filterUnits="userSpaceOnUse" color-interpolation-filters="sRGB">
<feFlood flood-opacity="0" result="BackgroundImageFix"/>
<feColorMatrix in="SourceAlpha" type="matrix" values="0 0 0 0 0 0 0 0 0 0 0 0 0 0 0 0 0 0 127 0" result="hardAlpha"/>
<feOffset dy="8"/>
<feGaussianBlur stdDeviation="2"/>
<feComposite in2="hardAlpha" operator="out"/>
<feColorMatrix type="matrix" values="0 0 0 0 0.28125 0 0 0 0 0.296981 0 0 0 0 0.3125 0 0 0 0.16 0"/>
<feBlend mode="normal" in2="BackgroundImageFix" result="effect1_dropShadow_49_297"/>
<feBlend mode="normal" in="SourceGraphic" in2="effect1_dropShadow_49_297" result="shape"/>
</filter>
<linearGradient id="paint0_linear_49_297" x1="118.259" y1="31.8392" x2="37.3004" y2="72.0986" gradientUnits="userSpaceOnUse">
<stop stop-color="#277DCE"/>
<stop offset="1" stop-color="white"/>
</linearGradient>
<linearGradient id="paint1_linear_49_297" x1="222.485" y1="85.0595" x2="205.998" y2="107.463" gradientUnits="userSpaceOnUse">
<stop stop-color="#4192DF"/>
<stop offset="1" stop-color="#90C6F9"/>
</linearGradient>
</defs>
</svg>
