<svg width="24" height="24" viewBox="0 0 24 24" fill="none" xmlns="http://www.w3.org/2000/svg">
<path d="M16.2455 12.9944C17.4909 13.8128 18.3636 14.9216 18.3636 16.4V19.04H22V16.4C22 14.4816 18.7545 13.3464 16.2455 12.9944ZM14.7273 12C16.7364 12 18.3636 10.4248 18.3636 8.47996C18.3636 6.53516 16.7364 4.95996 14.7273 4.95996C14.3 4.95996 13.9 5.04796 13.5182 5.17116C14.3005 6.10767 14.7272 7.2756 14.7272 8.47996C14.7272 9.68433 14.3005 10.8522 13.5182 11.7888C13.9 11.912 14.3 12 14.7273 12ZM9.27273 12C11.2818 12 12.9091 10.4248 12.9091 8.47996C12.9091 6.53516 11.2818 4.95996 9.27273 4.95996C7.26364 4.95996 5.63636 6.53516 5.63636 8.47996C5.63636 10.4248 7.26364 12 9.27273 12ZM9.27273 6.71996C10.2727 6.71996 11.0909 7.51196 11.0909 8.47996C11.0909 9.44796 10.2727 10.24 9.27273 10.24C8.27273 10.24 7.45455 9.44796 7.45455 8.47996C7.45455 7.51196 8.27273 6.71996 9.27273 6.71996ZM9.27273 12.88C6.84545 12.88 2 14.0592 2 16.4V19.04H16.5455V16.4C16.5455 14.0592 11.7 12.88 9.27273 12.88ZM14.7273 17.28H3.81818V16.4088C4 15.7752 6.81818 14.64 9.27273 14.64C11.7273 14.64 14.5455 15.7752 14.7273 16.4V17.28Z" fill="#F06C24"/>
</svg>
